<?xml version="1.0" encoding="UTF-8" standalone="no"?>
<!-- Created with Inkscape (http://www.inkscape.org/) -->

<svg
   width="104.1616mm"
   height="110.77205mm"
   viewBox="0 0 104.1616 110.77205"
   version="1.1"
   id="svg5"
   inkscape:version="1.1.1 (3bf5ae0d25, 2021-09-20)"
   sodipodi:docname="player_range.svg"
   xmlns:inkscape="http://www.inkscape.org/namespaces/inkscape"
   xmlns:sodipodi="http://sodipodi.sourceforge.net/DTD/sodipodi-0.dtd"
   xmlns="http://www.w3.org/2000/svg"
   xmlns:svg="http://www.w3.org/2000/svg">
  <sodipodi:namedview
     id="namedview7"
     pagecolor="#505050"
     bordercolor="#eeeeee"
     borderopacity="1"
     inkscape:pageshadow="0"
     inkscape:pageopacity="0"
     inkscape:pagecheckerboard="0"
     inkscape:document-units="mm"
     showgrid="false"
     inkscape:zoom="1.0859962"
     inkscape:cx="168.96929"
     inkscape:cy="203.03939"
     inkscape:window-width="1842"
     inkscape:window-height="1051"
     inkscape:window-x="-9"
     inkscape:window-y="-9"
     inkscape:window-maximized="1"
     inkscape:current-layer="layer1" />
  <defs
     id="defs2">
    <inkscape:path-effect
       effect="fill_between_many"
       method="originald"
       linkedpaths="#path350,0,1"
       id="path-effect1005"
       is_visible="true"
       lpeversion="0"
       join="true"
       close="true"
       autoreverse="true"
       applied="false" />
  </defs>
  <g
     inkscape:label="Livello 1"
     inkscape:groupmode="layer"
     id="layer1"
     transform="translate(-63.504941,-58.992335)">
    <path
       inkscape:original-d="M 0,0"
       inkscape:path-effect="#path-effect1005"
       d="M 196.31055,-80.087891 A 219.09969,143.89609 0 0 0 -0.5078125,0.65039062 H 393.17383 A 219.09969,143.89609 0 0 0 196.31055,-80.087891 Z"
       id="path1007"
       style="fill:none;fill-opacity:1;stroke:none" />
    <path
       id="path350"
       style="fill:#ffd42a;stroke-width:0.999999"
       d="M 196.31055,-80.087891 A 219.09969,143.89609 0 0 0 -0.5078125,0.65039062 H 393.17383 A 219.09969,143.89609 0 0 0 196.31055,-80.087891 Z m -0.33203,80.94335975 c -107.25125,0 -195.0019575,0.16897795 -195.0019575,0.37500005 0,0.255496 198.8390075,335.3732312 200.1621075,337.3476512 0.0609,0.0907 175.74694,-312.41735 187.73242,-333.9355419 l 2.10938,-3.78710935 z"
       transform="matrix(0.26458333,0,0,0.26458333,63.6393,80.182256)"
       inkscape:export-filename="C:\Users\User\Documents\GitHub\ludum-dare-51\Assets\Sprites\player_range.png"
       inkscape:export-xdpi="96"
       inkscape:export-ydpi="96" />
  </g>
</svg>
